<svg width="800" height="600" xmlns="http://www.w3.org/2000/svg">

 <g>
  <title>Layer 1</title>
  <rect stroke="#000" id="svg_1" height="642.00002" width="931.99998" y="-10.5" x="-42" fill="#221e20"/>
  <path stroke="null" id="svg_5" d="m141.5,164.5c-37.29282,0 -67.5,-29.31215 -67.5,-65.5c0,-36.18784 30.20718,-65.5 67.5,-65.5c37.29282,0 67.5,29.31215 67.5,65.5c0,36.18784 -30.20718,65.5 -67.5,65.5z" opacity="undefined" fill="#dd615d"/>
  <path stroke="null" id="svg_6" d="m776.5,325.5c-37.29282,0 -67.5,-29.31216 -67.5,-65.5c0,-36.18785 30.20718,-65.5 67.5,-65.5c37.29281,0 67.5,29.31215 67.5,65.5c0,36.18784 -30.20719,65.5 -67.5,65.5z" opacity="undefined" fill="#eab3b9"/>
  <path stroke="null" id="svg_7" d="m36.5,614.5c-37.29282,0 -67.5,-29.31216 -67.5,-65.5c0,-36.18785 30.20718,-65.5 67.5,-65.5c37.29281,0 67.5,29.31215 67.5,65.5c0,36.18784 -30.20719,65.5 -67.5,65.5z" opacity="undefined" fill="#5b396b"/>
  <path stroke="null" id="svg_8" d="m110.5,68.5c-37.29282,0 -67.5,-29.31216 -67.5,-65.5c0,-36.18785 30.20718,-65.5 67.5,-65.5c37.29281,0 67.5,29.31215 67.5,65.5c0,36.18784 -30.20719,65.5 -67.5,65.5z" opacity="undefined" fill="#a8c6df"/>
  <path stroke="null" id="svg_9" d="m610.5,534.5c-37.29282,0 -67.5,-29.31216 -67.5,-65.5c0,-36.18785 30.20718,-65.5 67.5,-65.5c37.29281,0 67.5,29.31215 67.5,65.5c0,36.18784 -30.20719,65.5 -67.5,65.5z" opacity="undefined" fill="#2a4b45"/>
 </g>
</svg>